<?xml version="1.0" encoding="utf-8"?>
<!-- Generator: Adobe Illustrator 25.4.1, SVG Export Plug-In . SVG Version: 6.00 Build 0)  -->
<svg version="1.1" id="Layer_1" xmlns="http://www.w3.org/2000/svg" xmlns:xlink="http://www.w3.org/1999/xlink" x="0px" y="0px"
	 viewBox="0 0 595.28 841.89" style="enable-background:new 0 0 595.28 841.89;" xml:space="preserve">
<style type="text/css">
	.st0{opacity:0.4;fill:#2E3388;}
	.st1{fill:#C85027;}
	.st2{fill:#FFFFFF;}
	.st3{opacity:0.6;fill:#2E3388;}
	.st4{opacity:0.5;fill:#2E3388;}
	.st5{opacity:0.5;fill:#2D2D2C;}
</style>
<polygon class="st0" points="194.74,301.79 174.43,313.64 154,301.97 153.9,278.45 174.22,266.6 194.64,278.27 "/>
<polygon class="st1" points="411.7,341.97 391.38,353.82 370.96,342.15 370.85,318.63 391.17,306.78 411.59,318.45 "/>
<polygon class="st1" points="415.1,409.09 394.78,420.94 374.36,409.28 374.25,385.76 394.57,373.9 414.99,385.57 "/>
<polygon class="st1" points="290.68,301.22 270.37,313.07 249.95,301.4 249.84,277.88 270.16,266.03 290.58,277.7 "/>
<polygon class="st1" points="266.42,342.12 246.11,353.97 225.69,342.3 225.58,318.78 245.9,306.93 266.32,318.6 "/>
<g>
	<path class="st2" d="M241.46,328.72h-2.2v-1.7h6.43v1.7h-2.2v5.96h-2.03V328.72z"/>
	<path class="st2" d="M248.26,330.75l-2.08-3.72h2.26l0.61,1.25c0.18,0.35,0.35,0.78,0.58,1.27h0.05c0.18-0.5,0.35-0.92,0.51-1.27
		l0.54-1.25h2.17l-2.08,3.82l2.21,3.84h-2.26l-0.71-1.37c-0.21-0.4-0.39-0.8-0.59-1.27h-0.05c-0.18,0.47-0.35,0.87-0.54,1.27
		l-0.66,1.37h-2.17L248.26,330.75z"/>
</g>
<polygon class="st1" points="365.82,409.09 345.51,420.94 325.08,409.28 324.98,385.76 345.3,373.9 365.72,385.57 "/>
<g>
	<path class="st2" d="M339.09,394h2.88c1.65,0,3.06,0.61,3.06,2.54c0,1.87-1.46,2.69-3.06,2.69h-0.85v2.43h-2.03V394z
		 M341.87,397.62c0.8,0,1.18-0.4,1.18-1.08c0-0.68-0.42-0.94-1.18-0.94h-0.75v2.03H341.87z"/>
	<path class="st2" d="M346.08,394h2.85c1.65,0,3.06,0.57,3.06,2.47c0,1.85-1.41,2.62-3.06,2.62h-0.83v2.57h-2.03V394z
		 M348.79,397.48c0.8,0,1.22-0.35,1.22-1.01s-0.42-0.87-1.22-0.87h-0.68v1.88H348.79z M349.94,397.21l2.49,4.44h-2.26l-1.59-3.1
		L349.94,397.21z"/>
</g>
<g>
	<path class="st2" d="M387.55,394h2.14l0.8,3.35c0.21,0.81,0.35,1.6,0.57,2.43h0.05c0.21-0.82,0.37-1.61,0.57-2.43l0.78-3.35h2.07
		l-2.26,7.66h-2.45L387.55,394z"/>
	<path class="st2" d="M395.34,399.96h1.74v-4.26h-1.74V394h5.51v1.7h-1.74v4.26h1.74v1.7h-5.51V399.96z"/>
</g>
<polygon class="st1" points="241.62,301.22 221.31,313.07 200.89,301.4 200.78,277.88 221.1,266.03 241.52,277.7 "/>
<g>
	<path class="st2" d="M214.54,290.11c0-2.59,1.27-3.93,3.13-3.93c1.86,0,3.13,1.34,3.13,3.93c0,2.66-1.27,4.01-3.13,4.01
		C215.81,294.12,214.54,292.77,214.54,290.11z M218.73,290.11c0-1.46-0.4-2.19-1.06-2.19c-0.66,0-1.06,0.73-1.06,2.19
		c0,1.53,0.4,2.26,1.06,2.26C218.33,292.37,218.73,291.64,218.73,290.11z"/>
	<path class="st2" d="M221.86,286.32h2.05v2.85h0.05l1.88-2.85h2.24l-4.17,5.7v1.96h-2.05V286.32z M224.48,290.7l1.18-1.58
		l2.62,4.85h-2.24L224.48,290.7z"/>
</g>
<g>
	<path class="st2" d="M264.33,286.64h2.03v5.96h3.26v1.7h-5.29V286.64z"/>
	<path class="st2" d="M272.57,286.64h2.45l2.31,7.66h-2.14l-0.86-3.72c-0.17-0.73-0.39-1.65-0.55-2.43h-0.05
		c-0.17,0.78-0.37,1.7-0.53,2.43l-0.86,3.72h-2.07L272.57,286.64z M271.92,291.11h3.72v1.57h-3.72V291.11z"/>
</g>
<polygon class="st1" points="339.23,301.22 318.91,313.07 298.49,301.4 298.39,277.88 318.7,266.03 339.12,277.7 "/>
<g>
	<path class="st2" d="M312.36,286.86h2.06l0.62,2.5l0.21,0.99h0.05l0.21-0.99l0.62-2.5h2.06v7.66h-1.67v-1.8
		c0-0.91,0.17-2.99,0.26-3.89h-0.04l-0.65,2.27l-0.4,1.39h-0.9l-0.42-1.39l-0.59-2.27h-0.05c0.09,0.9,0.26,2.98,0.26,3.89v1.8h-1.65
		V286.86z"/>
	<path class="st2" d="M319.33,293.56l1.15-1.39c0.58,0.44,1.26,0.74,1.96,0.74c0.61,0,0.85-0.2,0.85-0.45c0-0.45-0.4-0.54-1.11-0.84
		l-0.95-0.4c-0.88-0.33-1.61-1.02-1.61-2.13c0-1.31,1.18-2.38,2.92-2.38c0.91,0,1.87,0.33,2.62,1.02l-1.01,1.27
		c-0.55-0.37-0.99-0.55-1.72-0.55c-0.45,0-0.75,0.17-0.75,0.52c0,0.35,0.44,0.48,1.2,0.77l0.88,0.37c1.03,0.38,1.61,1.04,1.61,2.1
		c0,1.3-1.08,2.45-3.06,2.45C321.29,294.66,320.19,294.3,319.33,293.56z"/>
</g>
<polygon class="st1" points="288.78,220.31 268.47,232.16 248.04,220.49 247.94,196.97 268.26,185.12 288.68,196.79 "/>
<g>
	<path class="st2" d="M262.4,204.71h2.06l0.62,2.5l0.21,0.99h0.05l0.21-0.99l0.62-2.5h2.06v7.66h-1.67v-1.8
		c0-0.91,0.17-2.99,0.26-3.89h-0.04l-0.65,2.27l-0.4,1.39h-0.9l-0.42-1.39l-0.59-2.27h-0.05c0.09,0.9,0.26,2.98,0.26,3.89v1.8h-1.65
		V204.71z"/>
	<path class="st2" d="M269.25,208.5c0-2.59,1.27-3.93,3.13-3.93c1.86,0,3.13,1.34,3.13,3.93c0,2.66-1.27,4.01-3.13,4.01
		C270.53,212.5,269.25,211.16,269.25,208.5z M273.45,208.5c0-1.46-0.4-2.19-1.06-2.19c-0.66,0-1.06,0.73-1.06,2.19
		c0,1.53,0.4,2.26,1.06,2.26C273.05,210.76,273.45,210.03,273.45,208.5z"/>
</g>
<polygon class="st1" points="337.57,219.36 317.26,231.21 296.83,219.54 296.73,196.02 317.05,184.17 337.47,195.84 "/>
<g>
	<path class="st2" d="M311.24,204.71h2.05v2.85h0.05l1.88-2.85h2.24l-4.17,5.7v1.96h-2.05V204.71z M313.85,209.09l1.18-1.58
		l2.62,4.85h-2.24L313.85,209.09z"/>
	<path class="st2" d="M320.16,209.83l-2.43-5.12h2.17l0.64,1.67c0.2,0.59,0.41,1.13,0.62,1.74h0.05c0.21-0.61,0.44-1.15,0.65-1.74
		l0.64-1.67h2.12l-2.43,5.12v2.53h-2.03V209.83z"/>
</g>
<polygon class="st1" points="386.36,219.36 366.04,231.21 345.62,219.54 345.52,196.02 365.83,184.17 386.26,195.84 "/>
<g>
	<path class="st2" d="M359.39,204.71h2.07l0.09,3.79c0,0.66,0,1.32,0,1.98h0.05c0.09-0.66,0.26-1.33,0.38-1.98l0.42-1.86h1.18
		l0.39,1.86c0.11,0.62,0.27,1.3,0.38,1.98h0.05c0-0.68,0-1.34,0-1.98l0.09-3.79h1.93l-0.88,7.66h-2.1l-0.34-2.1
		c-0.08-0.5-0.17-1.04-0.18-1.5h-0.04c-0.04,0.46-0.09,1-0.18,1.5l-0.32,2.1h-2.05L359.39,204.71z"/>
	<path class="st2" d="M366.48,204.71h2.14l0.8,3.35c0.21,0.81,0.35,1.6,0.57,2.43h0.05c0.21-0.82,0.37-1.61,0.57-2.43l0.78-3.35
		h2.07l-2.26,7.66h-2.45L366.48,204.71z"/>
</g>
<polygon class="st1" points="435.15,219.36 414.83,231.21 394.41,219.54 394.31,196.02 414.62,184.17 435.05,195.84 "/>
<g>
	<path class="st2" d="M407.71,205.69h2.14l0.8,3.35c0.21,0.81,0.35,1.6,0.57,2.43h0.05c0.21-0.82,0.37-1.61,0.57-2.43l0.78-3.35
		h2.07l-2.26,7.66h-2.45L407.71,205.69z"/>
	<path class="st2" d="M417.04,205.69h2.45l2.31,7.66h-2.14l-0.86-3.72c-0.17-0.73-0.39-1.65-0.55-2.43h-0.05
		c-0.17,0.78-0.37,1.7-0.53,2.43l-0.86,3.72h-2.07L417.04,205.69z M416.39,210.15h3.72v1.57h-3.72V210.15z"/>
</g>
<polygon class="st1" points="411.09,260.63 390.77,272.48 370.35,260.81 370.24,237.29 390.56,225.44 410.98,237.11 "/>
<g>
	<path class="st2" d="M383.63,245.79h2.07l0.09,3.79c0,0.66,0,1.32,0,1.98h0.05c0.09-0.66,0.26-1.33,0.38-1.98l0.42-1.86h1.18
		l0.39,1.86c0.11,0.62,0.27,1.3,0.38,1.98h0.05c0-0.68,0-1.34,0-1.98l0.09-3.79h1.93l-0.88,7.66h-2.1l-0.34-2.1
		c-0.08-0.5-0.17-1.04-0.18-1.5h-0.04c-0.04,0.46-0.09,1-0.18,1.5l-0.32,2.1h-2.05L383.63,245.79z"/>
	<path class="st2" d="M390.71,245.79h2.14l0.8,3.35c0.21,0.81,0.35,1.6,0.57,2.43h0.05c0.21-0.82,0.37-1.61,0.57-2.43l0.78-3.35
		h2.07l-2.26,7.66h-2.45L390.71,245.79z"/>
</g>
<polygon class="st1" points="459.87,260.63 439.55,272.48 419.13,260.81 419.02,237.29 439.34,225.44 459.76,237.11 "/>
<g>
	<g>
		<path class="st2" d="M432.9,252.4l1.15-1.39c0.58,0.44,1.26,0.74,1.96,0.74c0.61,0,0.85-0.2,0.85-0.45c0-0.45-0.4-0.54-1.11-0.84
			l-0.95-0.4c-0.88-0.33-1.61-1.02-1.61-2.13c0-1.31,1.18-2.38,2.92-2.38c0.91,0,1.87,0.33,2.61,1.02l-1.01,1.27
			c-0.55-0.37-0.99-0.55-1.72-0.55c-0.45,0-0.75,0.17-0.75,0.52c0,0.35,0.44,0.48,1.2,0.77l0.88,0.37c1.02,0.38,1.61,1.04,1.61,2.1
			c0,1.3-1.08,2.45-3.06,2.45C434.87,253.5,433.76,253.14,432.9,252.4z"/>
		<path class="st2" d="M440.03,249.59c0-2.57,1.67-4.03,3.75-4.03c0.99,0,1.81,0.47,2.36,0.99l-1.11,1.25
			c-0.35-0.31-0.73-0.49-1.25-0.49c-0.94,0-1.67,0.82-1.67,2.21c0,1.44,0.73,2.24,1.77,2.24c0.49,0,0.92-0.26,1.25-0.61l1.11,1.23
			c-0.64,0.75-1.53,1.13-2.57,1.13C441.75,253.5,440.03,252.2,440.03,249.59z"/>
	</g>
</g>
<polygon class="st1" points="483.94,219.82 463.62,231.67 443.2,220 443.1,196.48 463.41,184.63 483.83,196.3 "/>
<g>
	<path class="st2" d="M457.16,204.88h2.05l1.28,3.42l0.62,1.72h0.05c-0.09-0.82-0.28-1.98-0.28-2.92v-2.21h1.93v7.66h-2.05
		l-1.28-3.43l-0.62-1.71h-0.05c0.09,0.87,0.28,1.98,0.28,2.92v2.21h-1.93V204.88z"/>
	<path class="st2" d="M464.11,208.77c0-2.57,1.67-4.03,3.75-4.03c0.99,0,1.81,0.47,2.36,0.99l-1.11,1.25
		c-0.35-0.31-0.73-0.49-1.25-0.49c-0.94,0-1.67,0.82-1.67,2.21c0,1.44,0.73,2.24,1.77,2.24c0.49,0,0.92-0.26,1.25-0.61l1.11,1.23
		c-0.64,0.75-1.53,1.13-2.57,1.13C465.83,212.68,464.11,211.39,464.11,208.77z"/>
</g>
<polygon class="st1" points="313.53,260.63 293.21,272.48 272.79,260.81 272.68,237.29 293,225.44 313.42,237.11 "/>
<g>
	<path class="st2" d="M288.35,245.7h2.45l2.31,7.66h-2.14l-0.86-3.72c-0.17-0.73-0.39-1.65-0.55-2.43h-0.05
		c-0.17,0.78-0.37,1.7-0.53,2.43l-0.86,3.72h-2.07L288.35,245.7z M287.7,250.16h3.72v1.57h-3.72V250.16z"/>
	<path class="st2" d="M293.76,245.7h2.05v2.85h0.05l1.88-2.85h2.24l-4.17,5.7v1.96h-2.05V245.7z M296.38,250.08l1.18-1.58l2.62,4.85
		h-2.24L296.38,250.08z"/>
</g>
<polygon class="st1" points="362.31,260.63 341.99,272.48 321.57,260.81 321.46,237.29 341.78,225.44 362.2,237.11 "/>
<g>
	<path class="st2" d="M337.34,247.63h-2.2v-1.7h6.43v1.7h-2.2v5.96h-2.03V247.63z"/>
	<path class="st2" d="M342.59,245.93h2.05l1.28,3.42l0.62,1.72h0.05c-0.09-0.82-0.28-1.98-0.28-2.92v-2.21h1.93v7.66h-2.05
		l-1.28-3.43l-0.62-1.71h-0.05c0.09,0.87,0.28,1.98,0.28,2.92v2.21h-1.93V245.93z"/>
</g>
<polygon class="st1" points="388.03,301.22 367.72,313.07 347.29,301.4 347.19,277.88 367.51,266.03 387.93,277.7 "/>
<g>
	<path class="st2" d="M362.86,286.74h2.45l2.31,7.66h-2.14l-0.86-3.72c-0.17-0.73-0.39-1.65-0.55-2.43h-0.05
		c-0.17,0.78-0.37,1.7-0.53,2.43l-0.86,3.72h-2.07L362.86,286.74z M362.21,291.21h3.72v1.57h-3.72V291.21z"/>
	<path class="st2" d="M368.74,286.74h2.03v5.96h3.26v1.7h-5.29V286.74z"/>
</g>
<g>
	<path class="st2" d="M385.32,327.52h5.24v1.7h-3.22v1.46h2.76v1.7h-2.76v2.8h-2.03V327.52z"/>
	<path class="st2" d="M392.41,327.52h2.03v5.96h3.26v1.7h-5.29V327.52z"/>
</g>
<g>
	<polygon class="st1" points="436.84,301.22 416.52,313.07 396.1,301.4 395.99,277.88 416.31,266.03 436.73,277.7 	"/>
	<g>
		<g>
			<path class="st2" d="M409.82,290.87c0-2.59,1.61-4.03,3.6-4.03c1.04,0,1.78,0.47,2.29,0.99l-1.11,1.25
				c-0.32-0.31-0.62-0.49-1.18-0.49c-0.84,0-1.52,0.82-1.52,2.21c0,1.44,0.53,2.24,1.63,2.24c0.19,0,0.4-0.05,0.52-0.14v-1.06h-0.95
				v-1.65h2.76v3.65c-0.52,0.47-1.46,0.94-2.44,0.94C411.45,294.79,409.82,293.49,409.82,290.87z"/>
			<path class="st2" d="M418.72,286.99h2.45l2.31,7.66h-2.14l-0.86-3.72c-0.17-0.73-0.39-1.65-0.55-2.43h-0.05
				c-0.17,0.78-0.37,1.7-0.53,2.43l-0.86,3.72h-2.07L418.72,286.99z M418.08,291.45h3.72v1.57h-3.72V291.45z"/>
		</g>
	</g>
</g>
<polygon class="st3" points="27.81,103.13 48.12,91.28 48.02,67.76 27.6,56.09 7.28,67.94 7.39,91.46 "/>
<polygon class="st3" points="77.75,148.68 98.06,136.83 97.96,113.31 77.54,101.64 57.22,113.49 57.33,137.01 "/>
<polygon class="st3" points="125.57,148.68 145.89,136.83 145.79,113.31 125.36,101.64 105.05,113.49 105.15,137.01 "/>
<polygon class="st3" points="173.15,148.68 193.47,136.83 193.37,113.31 172.94,101.64 152.63,113.49 152.73,137.01 "/>
<polygon class="st3" points="220.98,148.68 241.3,136.83 241.19,113.31 220.77,101.64 200.45,113.49 200.56,137.01 "/>
<polygon class="st3" points="268.81,148.68 289.12,136.83 289.02,113.31 268.6,101.64 248.28,113.49 248.38,137.01 "/>
<polygon class="st3" points="367.24,148.03 387.55,136.18 387.45,112.66 367.03,100.99 346.71,112.84 346.82,136.36 "/>
<path class="st3" d="M482.61,112.66l-20.42-11.67l-20.32,11.85l0.1,23.52l18.26,10.44c7.61-4.94,15.1-10.09,22.45-15.35
	L482.61,112.66z"/>
<path class="st4" d="M511.24,101.64l-20.32,11.85l0.05,11.95c9.13-6.71,18.01-13.51,26.59-20.18L511.24,101.64z"/>
<path class="st3" d="M556.72,72.45L536.3,60.78l-20.32,11.85l0.1,23.52l7.59,4.34c11.69-9.14,22.76-17.92,33.05-25.74L556.72,72.45z
	"/>
<polygon class="st3" points="560.63,67.19 580.95,55.34 580.84,31.82 560.42,20.15 540.11,32 540.21,55.52 "/>
<polygon class="st3" points="128.03,178.42 148.45,190.09 168.77,178.24 168.67,154.72 148.25,143.05 127.93,154.9 "/>
<polygon class="st3" points="176.35,178.42 196.77,190.09 217.09,178.24 216.98,154.72 196.56,143.05 176.25,154.9 "/>
<path class="st3" d="M260.6,181.18l5.05-2.95l-0.1-23.52l-20.42-11.67l-20.32,11.85l0.1,23.52l1.19,0.68
	c11.34-7.02,17.81-12.31,17.81-12.31S248.15,174.18,260.6,181.18z"/>
<polygon class="st3" points="273.48,178.42 293.9,190.09 314.22,178.24 314.11,154.72 293.69,143.05 273.37,154.9 "/>
<polygon class="st3" points="342.46,190.09 362.78,178.24 362.68,154.72 342.26,143.05 321.94,154.9 322.04,178.42 "/>
<path class="st3" d="M411.24,154.72l-20.42-11.67L370.5,154.9l0.1,23.52l11.06,6.32c9.92-2.77,19.83-6.46,29.66-10.83L411.24,154.72
	z"/>
<path class="st3" d="M439.38,143.05l-20.32,11.85l0.07,15.38c11.61-5.61,23.09-12.12,34.35-19.17L439.38,143.05z"/>
<polygon class="st3" points="79.47,178.42 99.89,190.09 120.21,178.24 120.1,154.72 99.68,143.05 79.37,154.9 "/>
<path class="st3" d="M144.52,211.04l-0.06-14l-20.42-11.67l-20.32,11.85l0.07,16.2C117.94,214.29,131.62,213.28,144.52,211.04z"/>
<path class="st3" d="M172.82,185.37l-20.32,11.85l0.05,12.25c14.6-3.17,28.06-7.81,39.91-12.87L172.82,185.37z"/>
<path class="st3" d="M95.98,212.94l-0.07-15.91l-20.42-11.67l-20.32,11.85l0.09,19.1C66.37,213.61,79.79,212.26,95.98,212.94z"/>
<path class="st5" d="M510.72,176.89c0.14-0.12,0.29-0.25,0.46-0.38C511.01,176.6,510.86,176.73,510.72,176.89z"/>
<path class="st3" d="M482.71,136.18l-0.02-4.73c-7.35,5.26-14.85,10.41-22.45,15.35l2.16,1.23L482.71,136.18z"/>
<path class="st0" d="M511.45,148.68l20.32-11.85l-0.1-23.52l-14.09-8.05c-8.58,6.67-17.46,13.47-26.59,20.18l0.05,11.57
	L511.45,148.68z"/>
<path class="st0" d="M556.83,95.97l-0.09-21.22c-10.3,7.82-21.37,16.6-33.05,25.74l12.83,7.33L556.83,95.97z"/>
<path class="st0" d="M260.6,181.18c-12.45-7.01-16.68-14.39-16.68-14.39s-6.47,5.28-17.81,12.31l19.23,10.99L260.6,181.18z"/>
<path class="st0" d="M411.34,178.24l-0.02-4.33c-9.83,4.38-19.74,8.06-29.66,10.83l9.36,5.35L411.34,178.24z"/>
<path class="st0" d="M439.59,190.09l20.32-11.85l-0.1-23.52l-6.32-3.61c-11.26,7.05-22.74,13.56-34.35,19.17l0.04,8.14
	L439.59,190.09z"/>
<polygon class="st0" points="508.37,154.72 487.95,143.05 467.63,154.9 467.73,178.42 488.16,190.09 508.47,178.24 "/>
<polygon class="st0" points="536.51,143.05 516.19,154.9 516.3,178.42 536.72,190.09 557.04,178.24 556.93,154.72 "/>
<polygon class="st0" points="560.29,101.64 539.97,113.49 540.08,137.01 560.5,148.68 580.82,136.83 580.71,113.31 "/>
<path class="st0" d="M124.24,232.41l20.32-11.85l-0.04-9.52c-12.9,2.24-26.57,3.25-40.73,2.38l0.03,7.32L124.24,232.41z"/>
<path class="st0" d="M173.03,232.41l20.32-11.85l-0.1-23.52l-0.78-0.44c-11.85,5.06-25.31,9.7-39.91,12.87l0.05,11.27L173.03,232.41
	z"/>
<polygon class="st0" points="242.03,197.03 221.61,185.37 201.3,197.22 201.4,220.74 221.82,232.41 242.14,220.56 "/>
<path class="st0" d="M75.45,232.41l20.32-11.85l-0.03-7.61c-16.2-0.68-29.61,0.67-40.72,3.37l0.02,4.42L75.45,232.41z"/>
<polygon class="st0" points="148.8,226.23 128.49,238.08 128.59,261.6 149.01,273.27 169.33,261.42 169.22,237.9 "/>
<polygon class="st0" points="197.58,226.23 177.27,238.08 177.37,261.6 197.79,273.27 218.11,261.42 218,237.9 "/>
<polygon class="st0" points="246.36,226.23 226.05,238.08 226.15,261.6 246.57,273.27 266.89,261.42 266.78,237.9 "/>
<polygon class="st0" points="100.02,226.23 79.71,238.08 79.81,261.6 100.23,273.27 120.55,261.42 120.44,237.9 "/>
<polygon class="st0" points="513.12,184.17 492.8,196.02 492.91,219.54 513.33,231.21 533.64,219.36 533.54,195.84 "/>
</svg>
